<svg width="29" height="29" viewBox="0 0 29 29" xmlns="http://www.w3.org/2000/svg">
<path d="M23.25 11C24.316 11 25.3568 10.6755 26.2339 10.0697C27.111 9.46385 27.7829 8.60534 28.1603 7.60833C28.5376 6.61133 28.6025 5.52309 28.3463 4.48831C28.0901 3.45353 27.525 2.52126 26.7261 1.81547C25.9272 1.10968 24.9323 0.663823 23.8739 0.53718C22.8154 0.410536 21.7435 0.609113 20.8006 1.1065C19.8577 1.60389 19.0886 2.37652 18.5955 3.32165C18.1025 4.26678 17.9088 5.33962 18.0402 6.3975L9.39525 10.72C8.65365 10.0049 7.71804 9.52373 6.70496 9.33653C5.69188 9.14932 4.64611 9.26432 3.69792 9.6672C2.74973 10.0701 1.94103 10.743 1.37256 11.6022C0.804091 12.4614 0.500977 13.4689 0.500977 14.4991C0.500977 15.5294 0.804091 16.5368 1.37256 17.396C1.94103 18.2552 2.74973 18.9282 3.69792 19.331C4.64611 19.7339 5.69188 19.8489 6.70496 19.6617C7.71804 19.4745 8.65365 18.9934 9.39525 18.2783L18.0402 22.6007C17.8871 23.8297 18.1734 25.0732 18.8484 26.1115C19.5234 27.1497 20.5437 27.916 21.729 28.2748C22.9143 28.6335 24.1883 28.5617 25.3258 28.0721C26.4633 27.5824 27.3911 26.7064 27.9452 25.5988C28.4993 24.4913 28.644 23.2235 28.3538 22.0196C28.0635 20.8156 27.357 19.7531 26.3592 19.0196C25.3613 18.2862 24.1363 17.9291 22.9006 18.0115C21.6649 18.094 20.4981 18.6105 19.6065 19.47L10.9615 15.1475C11.0145 14.7175 11.0145 14.2825 10.9615 13.8525L19.6065 9.53C20.548 10.44 21.8325 11 23.25 11Z" />
</svg>
