<svg width="29" height="24" viewBox="0 0 29 24" xmlns="http://www.w3.org/2000/svg">
<path d="M25.7148 5.80125C25.7337 6.05646 25.7338 6.31021 25.7338 6.56396C25.7338 14.3296 19.8231 23.2779 9.02125 23.2779C5.69333 23.2779 2.60167 22.314 0 20.6398C0.4725 20.6938 0.9275 20.7127 1.41896 20.7127C4.06291 20.7191 6.63198 19.835 8.71208 18.2029C7.48624 18.1807 6.29792 17.7763 5.31306 17.0461C4.32819 16.3159 3.59594 15.2963 3.21854 14.1298C3.58167 14.1838 3.94625 14.2202 4.32833 14.2202C4.85479 14.2202 5.38417 14.1473 5.87562 14.0204C4.54528 13.7518 3.34902 13.0307 2.49028 11.9797C1.63153 10.9288 1.1633 9.61282 1.16521 8.25563V8.18271C1.94833 8.61875 2.85687 8.89146 3.81938 8.92792C3.01305 8.3921 2.35188 7.66503 1.89487 6.81157C1.43786 5.95811 1.19921 5.00479 1.20021 4.03667C1.20021 2.94583 1.49042 1.94542 1.99938 1.07333C3.47541 2.88899 5.31636 4.37436 7.40299 5.43325C9.48962 6.49214 11.7754 7.10094 14.1123 7.22021C14.0219 6.78271 13.9665 6.32917 13.9665 5.87417C13.9661 5.10265 14.1178 4.33863 14.4128 3.62577C14.7079 2.91291 15.1406 2.26519 15.6861 1.71965C16.2317 1.17411 16.8794 0.741433 17.5922 0.446364C18.3051 0.151296 19.0691 -0.000382636 19.8406 7.24884e-07C21.5323 7.24884e-07 23.0592 0.70875 24.1325 1.855C25.4476 1.60069 26.7087 1.12062 27.86 0.436042C27.4216 1.79348 26.5034 2.94453 25.2773 3.67354C26.4436 3.54051 27.5835 3.23379 28.6592 2.76354C27.8558 3.93473 26.8603 4.96175 25.7148 5.80125V5.80125Z" />
</svg>
